<svg width="15" height="19" viewBox="0 0 15 19" fill="none" xmlns="http://www.w3.org/2000/svg">
<path d="M12.5009 12.9515L7.32405 18.2105L2.14721 12.9515C1.12334 11.9114 0.42608 10.5862 0.1436 9.14351C-0.13888 7.70083 0.00610774 6.20546 0.560229 4.84648C1.11435 3.48751 2.05272 2.32598 3.25667 1.50877C4.46062 0.691555 5.87608 0.255371 7.32405 0.255371C8.77203 0.255371 10.1875 0.691555 11.3914 1.50877C12.5954 2.32598 13.5338 3.48751 14.0879 4.84648C14.642 6.20546 14.787 7.70083 14.5045 9.14351C14.222 10.5862 13.5248 11.9114 12.5009 12.9515ZM7.32405 9.34527C7.75554 9.34527 8.16935 9.17114 8.47446 8.8612C8.77956 8.55125 8.95097 8.13088 8.95097 7.69255C8.95097 7.25422 8.77956 6.83385 8.47446 6.5239C8.16935 6.21395 7.75554 6.03983 7.32405 6.03983C6.89257 6.03983 6.47876 6.21395 6.17365 6.5239C5.86855 6.83385 5.69714 7.25422 5.69714 7.69255C5.69714 8.13088 5.86855 8.55125 6.17365 8.8612C6.47876 9.17114 6.89257 9.34527 7.32405 9.34527Z" fill="#EAEAEA"/>
</svg>
