<svg width="42" height="42" viewBox="0 0 42 42" fill="none" xmlns="http://www.w3.org/2000/svg">
<circle cx="20.5652" cy="21.1003" r="20.3276" stroke="#EAEAEA" stroke-width="0.469366"/>
<path d="M13.2903 27.0852C12.9237 27.4518 12.9237 28.0462 13.2903 28.4128C13.6569 28.7794 14.2513 28.7794 14.6179 28.4128L13.2903 27.0852ZM26.8493 15.7925C26.8493 15.2741 26.429 14.8538 25.9106 14.8538L17.462 14.8538C16.9436 14.8538 16.5233 15.2741 16.5233 15.7925C16.5233 16.311 16.9436 16.7313 17.462 16.7313L24.9719 16.7313L24.9719 24.2411C24.9719 24.7596 25.3921 25.1799 25.9106 25.1799C26.429 25.1799 26.8493 24.7596 26.8493 24.2411L26.8493 15.7925ZM14.6179 28.4128L26.5744 16.4563L25.2468 15.1288L13.2903 27.0852L14.6179 28.4128Z" fill="#EAEAEA"/>
</svg>
