<svg width="51" height="51" viewBox="0 0 51 51" fill="none" xmlns="http://www.w3.org/2000/svg">
<g clip-path="url(#clip0_1005_667)">
<path d="M37.5211 35.5096L34.5164 32.5049L37.5211 29.5001C38.3104 28.7108 38.9366 27.7738 39.3637 26.7425C39.7909 25.7112 40.0108 24.6058 40.0108 23.4896C40.0108 22.3733 39.7909 21.268 39.3637 20.2367C38.9366 19.2054 38.3104 18.2683 37.5211 17.479C36.7318 16.6897 35.7947 16.0636 34.7635 15.6364C33.7322 15.2092 32.6268 14.9893 31.5106 14.9893C30.3943 14.9893 29.289 15.2092 28.2577 15.6364C27.2264 16.0636 26.2893 16.6897 25.5 17.479L22.4952 20.4838L19.4905 17.479L22.4952 14.4743C24.8929 12.1153 28.1256 10.7994 31.4891 10.8131C34.8526 10.8268 38.0744 12.169 40.4528 14.5474C42.8311 16.9257 44.1733 20.1476 44.187 23.5111C44.2007 26.8746 42.8848 30.1072 40.5259 32.5049L37.5211 35.5096ZM31.5095 41.5213L28.5047 44.526C27.3244 45.7258 25.9181 46.68 24.3671 47.3336C22.8161 47.9871 21.151 48.3272 19.4679 48.334C17.7849 48.3409 16.1171 48.0144 14.5608 47.3735C13.0045 46.7326 11.5905 45.7899 10.4004 44.5997C9.21028 43.4096 8.26757 41.9956 7.62664 40.4393C6.98572 38.8831 6.65927 37.2153 6.66612 35.5322C6.67297 33.8491 7.013 32.1841 7.66657 30.633C8.32015 29.082 9.27435 27.6758 10.4741 26.4954L13.4789 23.4906L16.4836 26.4954L13.4789 29.5001C12.6896 30.2894 12.0634 31.2265 11.6363 32.2578C11.2091 33.2891 10.9892 34.3944 10.9892 35.5107C10.9892 36.627 11.2091 37.7323 11.6363 38.7636C12.0634 39.7949 12.6896 40.7319 13.4789 41.5213C14.2682 42.3106 15.2052 42.9367 16.2365 43.3639C17.2678 43.791 18.3732 44.0109 19.4894 44.0109C20.6057 44.0109 21.711 43.791 22.7423 43.3639C23.7736 42.9367 24.7107 42.3106 25.5 41.5213L28.5047 38.5165L31.5095 41.5213ZM31.5095 20.4838L34.5164 23.4906L19.4905 38.5144L16.4836 35.5096L31.5095 20.4838Z" fill="white"/>
</g>
<defs>
<clipPath id="clip0_1005_667">
<rect width="51" height="51" fill="white"/>
</clipPath>
</defs>
</svg>
