<svg width="1728" height="397" viewBox="0 0 1728 397" fill="none" xmlns="http://www.w3.org/2000/svg">
<path d="M19.1387 1C-25.028 92.1667 -98.3613 293.7 -38.3613 370.5C36.6387 466.5 205.139 -90.5 316.139 44C427.139 178.5 273.639 394 444.139 370.5C614.639 347 554.639 12 678.639 44C802.639 76 657.139 447 806.639 389.5C956.139 332 952.139 -14 1073.64 31C1195.14 76 1056.14 440.5 1186.64 389.5C1317.14 338.5 1329.14 5.5 1410.64 44C1492.14 82.5 1358.14 329.5 1451.64 359.5C1545.14 389.5 1551.64 -7.5 1671.14 88.5C1790.64 184.5 1663.14 432.5 1786.64 370.5" stroke="#333333"/>
</svg>
