<svg width="36" height="37" viewBox="0 0 36 37" fill="none" xmlns="http://www.w3.org/2000/svg">
<g filter="url(#filter0_d_961_449)">
<circle cx="17.9117" cy="14.5392" r="13.7913" stroke="#CFCFCF" stroke-width="0.240905"/>
<path d="M13.0988 18.6964C12.9106 18.8846 12.9106 19.1896 13.0988 19.3778C13.2869 19.566 13.592 19.566 13.7801 19.3778L13.0988 18.6964ZM22.0106 10.9478C22.0106 10.6817 21.7949 10.466 21.5288 10.466L17.1925 10.466C16.9264 10.466 16.7107 10.6817 16.7107 10.9478C16.7107 11.2139 16.9264 11.4296 17.1925 11.4296L21.047 11.4296L21.047 15.2841C21.047 15.5502 21.2627 15.7659 21.5288 15.7659C21.7949 15.7659 22.0106 15.5502 22.0106 15.2841L22.0106 10.9478ZM13.7801 19.3778L21.8695 11.2885L21.1881 10.6071L13.0988 18.6964L13.7801 19.3778Z" fill="white"/>
</g>
<defs>
<filter id="filter0_d_961_449" x="0" y="0.627441" width="35.8242" height="35.8232" filterUnits="userSpaceOnUse" color-interpolation-filters="sRGB">
<feFlood flood-opacity="0" result="BackgroundImageFix"/>
<feColorMatrix in="SourceAlpha" type="matrix" values="0 0 0 0 0 0 0 0 0 0 0 0 0 0 0 0 0 0 127 0" result="hardAlpha"/>
<feOffset dy="4"/>
<feGaussianBlur stdDeviation="2"/>
<feComposite in2="hardAlpha" operator="out"/>
<feColorMatrix type="matrix" values="0 0 0 0 0 0 0 0 0 0 0 0 0 0 0 0 0 0 0.25 0"/>
<feBlend mode="normal" in2="BackgroundImageFix" result="effect1_dropShadow_961_449"/>
<feBlend mode="normal" in="SourceGraphic" in2="effect1_dropShadow_961_449" result="shape"/>
</filter>
</defs>
</svg>
